<svg xmlns="http://www.w3.org/2000/svg" xmlns:xlink="http://www.w3.org/1999/xlink" width="1080" zoomAndPan="magnify" viewBox="0 0 810 809.999993" height="1080" preserveAspectRatio="xMidYMid meet" version="1.0"><defs><clipPath id="b004cadc2b"><path d="M 81 246.957031 L 166.207031 246.957031 L 166.207031 538.34375 L 81 538.34375 Z M 81 246.957031 " clip-rule="nonzero"/></clipPath><clipPath id="47602f7146"><path d="M 149.84375 264.808594 L 192.699219 264.808594 L 192.699219 556.199219 L 149.84375 556.199219 Z M 149.84375 264.808594 " clip-rule="nonzero"/></clipPath><clipPath id="8bbc1420e3"><path d="M 149 312 L 356 312 L 356 558 L 149 558 Z M 149 312 " clip-rule="nonzero"/></clipPath><clipPath id="59e09c9d8b"><path d="M 149.84375 334.882812 L 178.335938 312.230469 L 355.464844 535.046875 L 326.972656 557.695312 Z M 149.84375 334.882812 " clip-rule="nonzero"/></clipPath><clipPath id="1d31f8dad4"><path d="M 179.128906 264.808594 L 362.375 264.808594 L 362.375 448.050781 L 179.128906 448.050781 Z M 179.128906 264.808594 " clip-rule="nonzero"/></clipPath><clipPath id="a2f822ca4f"><path d="M 270.753906 264.808594 C 220.152344 264.808594 179.128906 305.828125 179.128906 356.429688 C 179.128906 407.03125 220.152344 448.050781 270.753906 448.050781 C 321.355469 448.050781 362.375 407.03125 362.375 356.429688 C 362.375 305.828125 321.355469 264.808594 270.753906 264.808594 Z M 270.753906 264.808594 " clip-rule="nonzero"/></clipPath><clipPath id="2ade3549da"><path d="M 345 318 L 430 318 L 430 426 L 345 426 Z M 345 318 " clip-rule="nonzero"/></clipPath><clipPath id="ba2e22602e"><path d="M 415.695312 318.4375 L 429.015625 328.039062 L 358.421875 425.945312 L 345.105469 416.34375 Z M 415.695312 318.4375 " clip-rule="nonzero"/></clipPath><clipPath id="10467172dc"><path d="M 387 359 L 435 359 L 435 382 L 387 382 Z M 387 359 " clip-rule="nonzero"/></clipPath><clipPath id="365021e8f0"><path d="M 387.726562 381.78125 L 387.113281 361.003906 L 434.273438 359.613281 L 434.886719 380.390625 Z M 387.726562 381.78125 " clip-rule="nonzero"/></clipPath><clipPath id="86022886d5"><path d="M 414.003906 317.160156 L 507 317.160156 L 507 424.410156 L 414.003906 424.410156 Z M 414.003906 317.160156 " clip-rule="nonzero"/></clipPath><clipPath id="68e1fe0bd0"><path d="M 512.203125 285.628906 L 527.632812 285.628906 L 527.632812 562.863281 L 512.203125 562.863281 Z M 512.203125 285.628906 " clip-rule="nonzero"/></clipPath><clipPath id="0f40f72bc5"><path d="M 449.394531 267.269531 L 588.011719 267.269531 L 588.011719 285.625 L 449.394531 285.625 Z M 449.394531 267.269531 " clip-rule="nonzero"/></clipPath><clipPath id="aeeebaf2f8"><path d="M 359.703125 450.0625 L 498.320312 450.0625 L 498.320312 468.417969 L 359.703125 468.417969 Z M 359.703125 450.0625 " clip-rule="nonzero"/></clipPath><clipPath id="ee943776cd"><path d="M 359.703125 492.539062 L 498.320312 492.539062 L 498.320312 510.894531 L 359.703125 510.894531 Z M 359.703125 492.539062 " clip-rule="nonzero"/></clipPath><clipPath id="9b55ed0170"><path d="M 359.703125 538.683594 L 498.320312 538.683594 L 498.320312 557.039062 L 359.703125 557.039062 Z M 359.703125 538.683594 " clip-rule="nonzero"/></clipPath><clipPath id="5be4ac19b2"><path d="M 519.914062 536.550781 L 609.878906 536.550781 L 609.878906 562.867188 L 519.914062 562.867188 Z M 519.914062 536.550781 " clip-rule="nonzero"/></clipPath><clipPath id="4c7d68ef63"><path d="M 622.632812 478.308594 L 634.03125 478.308594 L 634.03125 562.8125 L 622.632812 562.8125 Z M 622.632812 478.308594 " clip-rule="nonzero"/></clipPath><clipPath id="405160e658"><path d="M 631.632812 464.847656 L 648.738281 464.847656 L 648.738281 549.707031 L 631.632812 549.707031 Z M 631.632812 464.847656 " clip-rule="nonzero"/></clipPath><clipPath id="3ea466dd03"><path d="M 651.582031 464.847656 L 706.71875 464.847656 L 706.71875 478.46875 L 651.582031 478.46875 Z M 651.582031 464.847656 " clip-rule="nonzero"/></clipPath><clipPath id="3029891b2c"><path d="M 651.582031 496.371094 L 706.71875 496.371094 L 706.71875 509.996094 L 651.582031 509.996094 Z M 651.582031 496.371094 " clip-rule="nonzero"/></clipPath><clipPath id="eb24cfee82"><path d="M 711.226562 501.71875 L 765.976562 501.71875 L 765.976562 566.96875 L 711.226562 566.96875 Z M 711.226562 501.71875 " clip-rule="nonzero"/></clipPath><clipPath id="9f3cb9c8fc"><path d="M 87.082031 243.207031 L 172.289062 243.207031 L 172.289062 534.59375 L 87.082031 534.59375 Z M 87.082031 243.207031 " clip-rule="nonzero"/></clipPath><clipPath id="2de691c2ac"><path d="M 155.925781 261.058594 L 198.777344 261.058594 L 198.777344 552.449219 L 155.925781 552.449219 Z M 155.925781 261.058594 " clip-rule="nonzero"/></clipPath><clipPath id="2aa5499132"><path d="M 155 308 L 362 308 L 362 554 L 155 554 Z M 155 308 " clip-rule="nonzero"/></clipPath><clipPath id="b5c48e10d1"><path d="M 155.925781 331.132812 L 184.417969 308.480469 L 361.546875 531.296875 L 333.050781 553.945312 Z M 155.925781 331.132812 " clip-rule="nonzero"/></clipPath><clipPath id="93cdd752fd"><path d="M 185.210938 261.058594 L 368.457031 261.058594 L 368.457031 444.300781 L 185.210938 444.300781 Z M 185.210938 261.058594 " clip-rule="nonzero"/></clipPath><clipPath id="ce7653e1b9"><path d="M 276.832031 261.058594 C 226.230469 261.058594 185.210938 302.078125 185.210938 352.679688 C 185.210938 403.28125 226.230469 444.300781 276.832031 444.300781 C 327.433594 444.300781 368.457031 403.28125 368.457031 352.679688 C 368.457031 302.078125 327.433594 261.058594 276.832031 261.058594 Z M 276.832031 261.058594 " clip-rule="nonzero"/></clipPath><clipPath id="807aeacc9c"><path d="M 393 355 L 441 355 L 441 379 L 393 379 Z M 393 355 " clip-rule="nonzero"/></clipPath><clipPath id="79b0d5ed60"><path d="M 393.804688 378.03125 L 393.195312 357.253906 L 440.355469 355.863281 L 440.96875 376.640625 Z M 393.804688 378.03125 " clip-rule="nonzero"/></clipPath><clipPath id="951796c357"><path d="M 351 314 L 436 314 L 436 423 L 351 423 Z M 351 314 " clip-rule="nonzero"/></clipPath><clipPath id="9daeee0cb4"><path d="M 421.777344 314.6875 L 435.09375 324.289062 L 364.503906 422.195312 L 351.1875 412.59375 Z M 421.777344 314.6875 " clip-rule="nonzero"/></clipPath><clipPath id="e7bb4aab4a"><path d="M 420.085938 313.410156 L 513.085938 313.410156 L 513.085938 420.660156 L 420.085938 420.660156 Z M 420.085938 313.410156 " clip-rule="nonzero"/></clipPath><clipPath id="0420e3f933"><path d="M 518.28125 281.878906 L 533.714844 281.878906 L 533.714844 559.113281 L 518.28125 559.113281 Z M 518.28125 281.878906 " clip-rule="nonzero"/></clipPath><clipPath id="d856bf9114"><path d="M 456.683594 268.054688 L 595.300781 268.054688 L 595.300781 286.410156 L 456.683594 286.410156 Z M 456.683594 268.054688 " clip-rule="nonzero"/></clipPath><clipPath id="b3be58d594"><path d="M 365.785156 446.3125 L 504.402344 446.3125 L 504.402344 464.667969 L 365.785156 464.667969 Z M 365.785156 446.3125 " clip-rule="nonzero"/></clipPath><clipPath id="af50975531"><path d="M 365.785156 488.789062 L 504.402344 488.789062 L 504.402344 507.144531 L 365.785156 507.144531 Z M 365.785156 488.789062 " clip-rule="nonzero"/></clipPath><clipPath id="0f16c9bd27"><path d="M 365.785156 534.933594 L 504.402344 534.933594 L 504.402344 553.289062 L 365.785156 553.289062 Z M 365.785156 534.933594 " clip-rule="nonzero"/></clipPath><clipPath id="dfe608a637"><path d="M 526 532.800781 L 615.960938 532.800781 L 615.960938 559.117188 L 526 559.117188 Z M 526 532.800781 " clip-rule="nonzero"/></clipPath><clipPath id="5bfccb328d"><path d="M 628.714844 474.558594 L 640.109375 474.558594 L 640.109375 559.0625 L 628.714844 559.0625 Z M 628.714844 474.558594 " clip-rule="nonzero"/></clipPath><clipPath id="9a5850801a"><path d="M 637.714844 461.097656 L 654.820312 461.097656 L 654.820312 545.957031 L 637.714844 545.957031 Z M 637.714844 461.097656 " clip-rule="nonzero"/></clipPath><clipPath id="ec8532f92c"><path d="M 657.664062 461.097656 L 712.800781 461.097656 L 712.800781 474.71875 L 657.664062 474.71875 Z M 657.664062 461.097656 " clip-rule="nonzero"/></clipPath><clipPath id="56fd1321c5"><path d="M 657.664062 492.621094 L 712.800781 492.621094 L 712.800781 506.246094 L 657.664062 506.246094 Z M 657.664062 492.621094 " clip-rule="nonzero"/></clipPath><clipPath id="da8a9e63eb"><path d="M 717.308594 498 L 772.058594 498 L 772.058594 563.21875 L 717.308594 563.21875 Z M 717.308594 498 " clip-rule="nonzero"/></clipPath></defs><g clip-path="url(#b004cadc2b)"><path fill="#000000" d="M 81 246.957031 L 166.207031 246.957031 L 166.207031 538.191406 L 81 538.191406 Z M 81 246.957031 " fill-opacity="1" fill-rule="nonzero"/></g><g clip-path="url(#47602f7146)"><path fill="#000000" d="M 149.84375 264.808594 L 192.699219 264.808594 L 192.699219 556.25 L 149.84375 556.25 Z M 149.84375 264.808594 " fill-opacity="1" fill-rule="nonzero"/></g><g clip-path="url(#8bbc1420e3)"><g clip-path="url(#59e09c9d8b)"><path fill="#000000" d="M 149.84375 334.882812 L 178.335938 312.230469 L 355.46875 535.054688 L 326.976562 557.703125 Z M 149.84375 334.882812 " fill-opacity="1" fill-rule="nonzero"/></g></g><g clip-path="url(#1d31f8dad4)"><g clip-path="url(#a2f822ca4f)"><path fill="#000000" d="M 179.128906 264.808594 L 362.375 264.808594 L 362.375 448.050781 L 179.128906 448.050781 Z M 179.128906 264.808594 " fill-opacity="1" fill-rule="nonzero"/></g></g><g clip-path="url(#2ade3549da)"><g clip-path="url(#ba2e22602e)"><path fill="#000000" d="M 415.695312 318.4375 L 429.015625 328.039062 L 358.417969 425.953125 L 345.097656 416.351562 Z M 415.695312 318.4375 " fill-opacity="1" fill-rule="nonzero"/></g></g><g clip-path="url(#10467172dc)"><g clip-path="url(#365021e8f0)"><path fill="#000000" d="M 387.726562 381.78125 L 387.113281 361.003906 L 434.269531 359.613281 L 434.882812 380.390625 Z M 387.726562 381.78125 " fill-opacity="1" fill-rule="nonzero"/></g></g><g clip-path="url(#86022886d5)"><path fill="#000000" d="M 488.554688 389.4375 C 487.53125 389.4375 486.667969 390.125 486.335938 391.097656 C 483.085938 400.539062 474 405.757812 462.304688 405.757812 C 445.257812 405.757812 434.945312 392.828125 434.945312 370.75 C 434.945312 348.742188 445.257812 335.8125 462.234375 335.8125 C 474.203125 335.8125 483.484375 342.058594 486.539062 352.703125 C 486.835938 353.730469 487.722656 354.464844 488.785156 354.464844 C 488.785156 354.464844 501.648438 354.472656 505.8125 354.464844 C 506.511719 354.464844 507.058594 353.84375 506.96875 353.148438 C 504.246094 332.25 485.542969 317.160156 462.234375 317.160156 C 432.5 317.160156 414.03125 337.722656 414.03125 370.820312 C 414.03125 403.875 432.53125 424.410156 462.304688 424.410156 C 485.699219 424.410156 503.605469 410.921875 506.964844 390.804688 C 507.082031 390.09375 506.527344 389.441406 505.8125 389.4375 Z M 488.554688 389.4375 " fill-opacity="1" fill-rule="nonzero"/></g><g clip-path="url(#68e1fe0bd0)"><path fill="#000000" d="M 512.203125 285.628906 L 527.632812 285.628906 L 527.632812 562.863281 L 512.203125 562.863281 Z M 512.203125 285.628906 " fill-opacity="1" fill-rule="nonzero"/></g><g clip-path="url(#0f40f72bc5)"><path fill="#000000" d="M 588.011719 267.269531 L 588.011719 285.625 L 449.417969 285.625 L 449.417969 267.269531 Z M 588.011719 267.269531 " fill-opacity="1" fill-rule="nonzero"/></g><g clip-path="url(#aeeebaf2f8)"><path fill="#000000" d="M 498.320312 450.0625 L 498.320312 468.417969 L 359.726562 468.417969 L 359.726562 450.0625 Z M 498.320312 450.0625 " fill-opacity="1" fill-rule="nonzero"/></g><g clip-path="url(#ee943776cd)"><path fill="#000000" d="M 498.320312 492.539062 L 498.320312 510.894531 L 359.726562 510.894531 L 359.726562 492.539062 Z M 498.320312 492.539062 " fill-opacity="1" fill-rule="nonzero"/></g><g clip-path="url(#9b55ed0170)"><path fill="#000000" d="M 498.320312 538.683594 L 498.320312 557.039062 L 359.726562 557.039062 L 359.726562 538.683594 Z M 498.320312 538.683594 " fill-opacity="1" fill-rule="nonzero"/></g><g clip-path="url(#5be4ac19b2)"><path fill="#000000" d="M 609.878906 536.550781 L 609.878906 562.867188 L 519.933594 562.867188 L 519.933594 536.550781 Z M 609.878906 536.550781 " fill-opacity="1" fill-rule="nonzero"/></g><g clip-path="url(#4c7d68ef63)"><path fill="#000000" d="M 622.632812 478.308594 L 634.03125 478.308594 L 634.03125 562.800781 L 622.632812 562.800781 Z M 622.632812 478.308594 " fill-opacity="1" fill-rule="nonzero"/></g><g clip-path="url(#405160e658)"><path fill="#000000" d="M 631.632812 464.847656 L 648.738281 464.847656 L 648.738281 549.699219 L 631.632812 549.699219 Z M 631.632812 464.847656 " fill-opacity="1" fill-rule="nonzero"/></g><g clip-path="url(#3ea466dd03)"><path fill="#000000" d="M 706.71875 464.847656 L 706.71875 478.46875 L 651.585938 478.46875 L 651.585938 464.847656 Z M 706.71875 464.847656 " fill-opacity="1" fill-rule="nonzero"/></g><g clip-path="url(#3029891b2c)"><path fill="#000000" d="M 706.71875 496.371094 L 706.71875 509.996094 L 651.585938 509.996094 L 651.585938 496.371094 Z M 706.71875 496.371094 " fill-opacity="1" fill-rule="nonzero"/></g><g clip-path="url(#eb24cfee82)"><path fill="#000000" d="M 711.226562 566.929688 L 711.226562 525.972656 L 738.832031 525.972656 L 749.917969 542.6875 L 727.851562 542.6875 L 727.851562 550.214844 L 754.890625 550.214844 L 765.976562 566.929688 Z M 728.363281 518.46875 L 717.296875 501.753906 L 754.910156 501.753906 L 765.972656 518.46875 Z M 728.363281 518.46875 " fill-opacity="1" fill-rule="nonzero"/></g><g clip-path="url(#9f3cb9c8fc)"><path fill="#ffffff" d="M 87.082031 243.207031 L 172.289062 243.207031 L 172.289062 534.441406 L 87.082031 534.441406 Z M 87.082031 243.207031 " fill-opacity="1" fill-rule="nonzero"/></g><g clip-path="url(#2de691c2ac)"><path fill="#3d3d3d" d="M 155.925781 261.058594 L 198.777344 261.058594 L 198.777344 552.5 L 155.925781 552.5 Z M 155.925781 261.058594 " fill-opacity="1" fill-rule="nonzero"/></g><g clip-path="url(#2aa5499132)"><g clip-path="url(#b5c48e10d1)"><path fill="#3d3d3d" d="M 155.925781 331.132812 L 184.417969 308.480469 L 361.550781 531.304688 L 333.058594 553.953125 Z M 155.925781 331.132812 " fill-opacity="1" fill-rule="nonzero"/></g></g><g clip-path="url(#93cdd752fd)"><g clip-path="url(#ce7653e1b9)"><path fill="#cbc4c4" d="M 185.210938 261.058594 L 368.457031 261.058594 L 368.457031 444.300781 L 185.210938 444.300781 Z M 185.210938 261.058594 " fill-opacity="1" fill-rule="nonzero"/></g></g><g clip-path="url(#807aeacc9c)"><g clip-path="url(#79b0d5ed60)"><path fill="#3d3d3d" d="M 393.804688 378.03125 L 393.195312 357.253906 L 440.351562 355.863281 L 440.964844 376.640625 Z M 393.804688 378.03125 " fill-opacity="1" fill-rule="nonzero"/></g></g><g clip-path="url(#951796c357)"><g clip-path="url(#9daeee0cb4)"><path fill="#a3a3a3" d="M 421.777344 314.6875 L 435.09375 324.289062 L 364.5 422.203125 L 351.179688 412.601562 Z M 421.777344 314.6875 " fill-opacity="1" fill-rule="nonzero"/></g></g><g clip-path="url(#e7bb4aab4a)"><path fill="#ffffff" d="M 494.769531 385.570312 C 493.742188 385.570312 492.875 386.253906 492.542969 387.226562 C 489.289062 396.652344 480.1875 401.863281 468.46875 401.863281 C 451.390625 401.863281 441.0625 388.953125 441.0625 366.914062 C 441.0625 344.941406 451.390625 332.03125 468.402344 332.03125 C 480.390625 332.03125 489.691406 338.269531 492.75 348.894531 C 493.042969 349.917969 493.9375 350.652344 495 350.652344 C 495 350.652344 507.882812 350.660156 512.058594 350.652344 C 512.757812 350.652344 513.304688 350.03125 513.214844 349.339844 C 510.484375 328.472656 491.753906 313.410156 468.402344 313.410156 C 438.617188 313.410156 420.113281 333.9375 420.113281 366.984375 C 420.113281 399.984375 438.644531 420.484375 468.46875 420.484375 C 491.90625 420.484375 509.84375 407.019531 513.210938 386.933594 C 513.328125 386.226562 512.773438 385.570312 512.054688 385.570312 Z M 494.769531 385.570312 " fill-opacity="1" fill-rule="nonzero"/></g><g clip-path="url(#0420e3f933)"><path fill="#9a9898" d="M 518.28125 281.878906 L 533.714844 281.878906 L 533.714844 559.113281 L 518.28125 559.113281 Z M 518.28125 281.878906 " fill-opacity="1" fill-rule="nonzero"/></g><g clip-path="url(#d856bf9114)"><path fill="#9a9898" d="M 595.300781 268.054688 L 595.300781 286.410156 L 456.707031 286.410156 L 456.707031 268.054688 Z M 595.300781 268.054688 " fill-opacity="1" fill-rule="nonzero"/></g><g clip-path="url(#b3be58d594)"><path fill="#363636" d="M 504.402344 446.3125 L 504.402344 464.667969 L 365.808594 464.667969 L 365.808594 446.3125 Z M 504.402344 446.3125 " fill-opacity="1" fill-rule="nonzero"/></g><g clip-path="url(#af50975531)"><path fill="#363636" d="M 504.402344 488.789062 L 504.402344 507.144531 L 365.808594 507.144531 L 365.808594 488.789062 Z M 504.402344 488.789062 " fill-opacity="1" fill-rule="nonzero"/></g><g clip-path="url(#0f16c9bd27)"><path fill="#363636" d="M 504.402344 534.933594 L 504.402344 553.289062 L 365.808594 553.289062 L 365.808594 534.933594 Z M 504.402344 534.933594 " fill-opacity="1" fill-rule="nonzero"/></g><g clip-path="url(#dfe608a637)"><path fill="#9a9898" d="M 615.960938 532.800781 L 615.960938 559.117188 L 526.011719 559.117188 L 526.011719 532.800781 Z M 615.960938 532.800781 " fill-opacity="1" fill-rule="nonzero"/></g><g clip-path="url(#5bfccb328d)"><path fill="#363636" d="M 628.714844 474.558594 L 640.109375 474.558594 L 640.109375 559.050781 L 628.714844 559.050781 Z M 628.714844 474.558594 " fill-opacity="1" fill-rule="nonzero"/></g><g clip-path="url(#9a5850801a)"><path fill="#ffffff" d="M 637.714844 461.097656 L 654.820312 461.097656 L 654.820312 545.949219 L 637.714844 545.949219 Z M 637.714844 461.097656 " fill-opacity="1" fill-rule="nonzero"/></g><g clip-path="url(#ec8532f92c)"><path fill="#ffffff" d="M 712.800781 461.097656 L 712.800781 474.71875 L 657.667969 474.71875 L 657.667969 461.097656 Z M 712.800781 461.097656 " fill-opacity="1" fill-rule="nonzero"/></g><g clip-path="url(#56fd1321c5)"><path fill="#ffffff" d="M 712.800781 492.621094 L 712.800781 506.246094 L 657.667969 506.246094 L 657.667969 492.621094 Z M 712.800781 492.621094 " fill-opacity="1" fill-rule="nonzero"/></g><g clip-path="url(#da8a9e63eb)"><path fill="#888686" d="M 717.308594 563.003906 L 717.308594 522.160156 L 744.988281 522.160156 L 756.105469 538.828125 L 733.976562 538.828125 L 733.976562 546.332031 L 761.09375 546.332031 L 772.210938 563.003906 Z M 734.492188 514.671875 L 723.398438 498.003906 L 761.113281 498.003906 L 772.207031 514.671875 Z M 734.492188 514.671875 " fill-opacity="1" fill-rule="nonzero"/></g></svg>